HIERARCHY
ROOT Hips
{
	OFFSET 0.000000 0.000000 0.000000
	CHANNELS 6 Xposition Yposition Zposition Zrotation Yrotation Xrotation 
	JOINT LHipJoint
	{
		OFFSET 0.000000 0.000000 0.000000
		CHANNELS 3 Zrotation Yrotation Xrotation
		JOINT LeftUpLeg
		{
			OFFSET 1.363060 -1.794630 0.839290
			CHANNELS 3 Zrotation Yrotation Xrotation
			JOINT LeftLeg
			{
				OFFSET 2.448110 -6.726130 0.000000
				CHANNELS 3 Zrotation Yrotation Xrotation
				JOINT LeftFoot
				{
					OFFSET 2.562200 -7.039590 0.000000
					CHANNELS 3 Zrotation Yrotation Xrotation
					JOINT LeftToeBase
					{
						OFFSET 0.157640 -0.433110 2.322550
						CHANNELS 3 Zrotation Yrotation Xrotation
						End Site
						{
							OFFSET 0.000000 0.000000 0.000000
						}
					}
				}
			}
		}
	}
	JOINT RHipJoint
	{
		OFFSET 0.000000 0.000000 0.000000
		CHANNELS 3 Zrotation Yrotation Xrotation
		JOINT RightUpLeg
		{
			OFFSET -1.305520 -1.794630 0.839290
			CHANNELS 3 Zrotation Yrotation Xrotation
			JOINT RightLeg
			{
				OFFSET -2.542530 -6.985550 0.000000
				CHANNELS 3 Zrotation Yrotation Xrotation
				JOINT RightFoot
				{
					OFFSET -2.568260 -7.056230 0.000000
					CHANNELS 3 Zrotation Yrotation Xrotation
					JOINT RightToeBase
					{
						OFFSET -0.164730 -0.452590 2.363150
						CHANNELS 3 Zrotation Yrotation Xrotation
						End Site
						{
							OFFSET 0.000000 0.000000 0.000000
						}
					}
				}
			}
		}
	}
}
MOTION
Frames: 30
Frame Time: 0.008333
-11.095577 16.770591 -0.150238 -23.687170 76.575942 -5.278867 -9.109846 0.668668 1.667848 -17.118288 -0.406304 -44.145763 -2.235001 0.597697 25.352038 2.329657 10.038116 -9.718698 0.062700 -0.000000 -14.621400 10.927089 -2.823693 -2.624710 3.052455 -13.105214 -11.091900 0.477520 -2.664029 38.750637 0.182352 13.130454 22.158864 6.320200 0.000001 -94.474100
-10.883741 16.711315 -0.150483 -22.471732 76.681412 -4.465444 -9.124250 0.669349 1.708087 -17.101272 -1.392318 -44.003113 -2.056523 0.811293 28.076263 2.473546 10.572299 -10.882674 -0.203300 -0.000001 -10.317700 11.055094 -2.647372 -2.799844 2.147175 -13.828180 -12.137922 0.188642 -2.814252 42.125348 -0.076975 12.233346 24.064773 6.372600 0.000000 -92.839800
-10.676084 16.656881 -0.150893 -21.023458 76.806822 -3.382905 -9.137725 0.661440 1.714750 -17.238065 -2.260502 -43.806068 -1.906917 0.997781 30.615797 2.626102 11.142102 -12.143864 -0.514101 0.000000 -6.971001 11.159529 -2.442149 -2.942212 1.290225 -14.315340 -13.296535 -0.076541 -2.958551 45.520631 -0.358340 10.719080 25.706535 6.002000 0.000000 -90.415000
-10.472635 16.609029 -0.151852 -19.435300 76.946237 -2.120276 -9.149632 0.646036 1.686878 -17.505420 -2.985297 -43.517288 -1.788234 1.151777 32.880565 2.786975 11.742429 -13.480322 -0.869900 -0.000001 -4.555200 11.242013 -2.221036 -3.047436 0.520001 -14.551964 -14.554614 -0.313430 -3.103774 48.876713 -0.650531 8.668300 26.966763 5.205500 -0.000000 -87.343500
-10.273400 16.569238 -0.153447 -17.746685 77.096883 -0.720890 -9.157474 0.626600 1.624212 -17.886048 -3.556906 -43.092974 -1.701978 1.269667 34.793236 2.954498 12.363397 -14.860671 -1.267400 -0.000000 -2.965300 11.307302 -1.994767 -3.116108 -0.153150 -14.546642 -15.892743 -0.523250 -3.255645 52.131198 -0.941627 6.234909 27.757515 4.061900 -0.000000 -83.900799
-10.077949 16.538549 -0.156452 -16.112348 77.254042 0.661057 -9.161255 0.605868 1.530679 -18.332848 -3.966831 -42.517487 -1.646520 1.350909 36.315161 3.122137 12.971733 -16.248356 -1.697800 -0.000000 -2.065100 11.358975 -1.776429 -3.147287 -0.695689 -14.310262 -17.292221 -0.711401 -3.415600 55.219634 -1.219076 3.606136 28.030434 2.704700 0.000001 -80.322701
-9.885793 16.517599 -0.161300 -14.619788 77.417737 1.932450 -9.160927 0.587898 1.410929 -18.809400 -4.221319 -41.773942 -1.619860 1.396284 37.420097 3.281335 13.531825 -17.591738 -2.142600 -0.000000 -1.742001 11.400582 -1.573222 -3.144632 -1.101565 -13.870301 -18.728788 -0.884482 -3.581712 58.081941 -1.470649 0.989887 27.783151 1.299900 -0.000000 -76.856400
-9.696296 16.506484 -0.168499 -13.359205 77.591544 2.998134 -9.158191 0.576131 1.271680 -19.276918 -4.335169 -40.858218 -1.618713 1.408239 38.105039 3.421250 14.001639 -18.834666 -2.575700 0.000000 -1.887100 11.433545 -1.389352 -3.112774 -1.368435 -13.259340 -20.176740 -1.047443 -3.748677 60.664301 -1.685358 -1.425880 27.051292 0.003100 0.000000 -73.669300
-9.508754 16.504881 -0.178558 -12.408621 77.783426 3.775942 -9.156070 0.572823 1.121362 -19.699255 -4.332489 -39.778749 -1.638799 1.390614 38.388633 3.530433 14.339433 -19.922656 -2.965700 -0.000000 -2.384400 11.457174 -1.226174 -3.057167 -1.498569 -12.514493 -21.610985 -1.201695 -3.909298 62.921050 -1.854267 -3.495345 25.896901 -1.067500 0.000001 -70.858100
-9.322495 16.512214 -0.191689 -11.792363 78.006621 4.236888 -9.157046 0.578950 0.968367 -20.053887 -4.248418 -38.545737 -1.675546 1.347694 38.301576 3.599586 14.515080 -20.808664 -3.282200 0.000000 -3.102100 11.470118 -1.082004 -2.984898 -1.509121 -11.678107 -23.005342 -1.344461 -4.056886 64.816004 -1.971251 -5.123142 24.401537 -1.844300 0.000000 -68.481800
-9.136813 16.527524 -0.208213 -11.566730 78.277004 4.326913 -9.164535 0.593755 0.823658 -20.315101 -4.122802 -37.189727 -1.723172 1.284884 37.897730 3.622143 14.507791 -21.463406 -3.501700 0.000000 -3.896500 11.469445 -0.955130 -2.900925 -1.404937 -10.789755 -24.344760 -1.469905 -4.184842 66.324722 -2.033830 -6.274259 22.657320 -2.315100 0.000000 -66.569100
-8.951210 16.549852 -0.227942 -11.721754 78.614003 4.055486 -9.179226 0.615959 0.696237 -20.478475 -4.001953 -35.733931 -1.776366 1.207143 37.231468 3.596928 14.320026 -21.871905 -3.612600 0.000000 -4.631700 11.453914 -0.841842 -2.812089 -1.209212 -9.894187 -25.614896 -1.570569 -4.289941 67.437185 -2.042904 -6.956904 20.756300 -2.508200 0.000001 -65.020100
-8.765297 16.578157 -0.250680 -12.273012 79.036929 3.411468 -9.201150 0.643508 0.595039 -20.542558 -3.930064 -34.210915 -1.829553 1.119532 36.366049 3.527256 13.970100 -22.038316 -3.616600 0.000000 -5.204100 11.422402 -0.738424 -2.723046 -0.936306 -9.030363 -26.812659 -1.639213 -4.370019 68.153148 -2.004947 -7.230899 18.800921 -2.487200 0.000000 -63.834400
-8.578892 16.611539 -0.275958 -13.236868 79.563819 2.382579 -9.228713 0.674339 0.526682 -20.515687 -3.945206 -32.650849 -1.877973 1.026478 35.361154 3.420451 13.491072 -21.981123 -3.527000 0.000000 -5.562100 11.375026 -0.641111 -2.637922 -0.601173 -8.233134 -27.940363 -1.670851 -4.425045 68.485031 -1.930939 -7.189772 16.887014 -2.329300 0.000000 -62.967500
-8.391907 16.649136 -0.303206 -14.658479 80.208849 0.927482 -9.259599 0.706388 0.494835 -20.411088 -4.073706 -31.080002 -1.917905 0.931523 34.269798 3.286268 12.923970 -21.729990 -3.365100 0.000000 -5.708900 11.312671 -0.546786 -2.559459 -0.216850 -7.528905 -29.005506 -1.663759 -4.456491 68.454463 -1.835443 -6.949258 15.095937 -2.110300 0.000001 -62.428100
-8.204407 16.690323 -0.331701 -16.630515 80.980696 -1.044876 -9.291231 0.737547 0.499487 -20.244744 -4.327276 -29.517704 -1.947107 0.837060 33.133437 3.135210 12.310899 -21.321438 -3.154600 -0.000000 -5.693800 11.236715 -0.453957 -2.489386 0.205986 -6.933496 -30.016026 -1.619512 -4.467257 68.090168 -1.733775 -6.627431 13.477640 -1.890000 0.000000 -62.130100
-8.016535 16.734453 -0.360826 -19.341768 81.880649 -3.721267 -9.321754 0.765165 0.537729 -20.032847 -4.704160 -27.978822 -1.964562 0.744188 31.983000 2.976959 11.688726 -20.794164 -2.918200 0.000000 -5.591700 11.147937 -0.363252 -2.426917 0.659826 -6.448408 -30.981367 -1.541807 -4.460680 67.420265 -1.641014 -6.336728 12.060753 -1.711300 -0.000000 -62.102600
-7.828490 16.781122 -0.389967 -23.138569 82.901964 -7.452566 -9.351513 0.785292 0.602678 -19.789807 -5.187626 -26.463742 -1.970511 0.652492 30.832715 2.818885 11.084906 -20.182262 -2.673400 0.000000 -5.486300 11.045841 -0.279157 -2.371252 1.135142 -6.066160 -31.902080 -1.434647 -4.441679 66.473047 -1.567623 -6.158535 10.822999 -1.593800 -0.000000 -62.163500
-7.640311 16.829797 -0.418670 -28.687852 84.028150 -12.906965 -9.385688 0.791455 0.686953 -19.529140 -5.755739 -24.971458 -1.965656 0.560272 29.689049 2.665837 10.516234 -19.513143 -2.432500 0.000000 -5.455500 10.925175 -0.210031 -2.318763 1.621691 -5.768447 -32.779673 -1.301049 -4.414623 65.266054 -1.521917 -6.152699 9.737358 -1.546000 0.000000 -62.338500
-7.452131 16.879984 -0.446639 -37.283652 85.224585 -21.383173 -9.441379 0.773483 0.782993 -19.264800 -6.382194 -23.493817 -1.951545 0.465335 28.547936 2.519400 9.988470 -18.802284 -2.201200 0.000000 -5.567000 10.769857 -0.169324 -2.266078 2.101354 -5.532630 -33.609054 -1.142931 -4.382613 63.809818 -1.508005 -6.344537 8.757307 -1.564000 0.000000 -62.560200
-7.263880 16.931193 -0.473807 -51.379244 86.403881 -35.340658 -9.559201 0.722678 0.887162 -19.018147 -7.038101 -22.022761 -1.932813 0.368768 27.395607 2.378114 9.500052 -18.052361 -1.980300 -0.000000 -5.876300 10.542186 -0.168418 -2.212380 2.543517 -5.331018 -34.380195 -0.965221 -4.339400 62.110707 -1.526110 -6.725433 7.830295 -1.635101 0.000000 -62.671100
-7.075474 16.982795 -0.500202 -74.056743 87.336402 -57.869579 -9.784529 0.661676 1.003197 -18.812138 -7.686061 -20.570300 -1.922138 0.284638 26.205903 2.239874 9.052913 -17.260600 -1.767100 0.000000 -6.427600 10.201918 -0.177750 -2.162009 2.911692 -5.110141 -35.074456 -0.787922 -4.251385 60.176910 -1.573558 -7.262394 6.921874 -1.742800 -0.000000 -62.591900
-6.886696 17.034100 -0.525973 -102.567903 87.676643 -86.229842 -10.049359 0.667860 1.128924 -18.619240 -8.278378 -19.167135 -1.929957 0.233801 24.955934 2.105886 8.651294 -16.428478 -1.557500 -0.000000 -7.251199 9.819671 -0.104421 -2.113195 3.228711 -4.789547 -35.664083 -0.635217 -4.079845 58.004629 -1.644666 -7.904948 6.027707 -1.870900 -0.000000 -62.355800
-6.697415 17.084408 -0.551410 -125.863387 87.339417 -109.375670 -10.206681 0.757897 1.239318 -18.363282 -8.797159 -17.797981 -1.940402 0.204890 23.668924 1.975129 8.264334 -15.547220 -1.346999 0.000000 -8.360000 9.538782 0.059439 -2.047048 3.571656 -4.365520 -36.129222 -0.484625 -3.861567 55.556370 -1.732414 -8.591693 5.144199 -2.000900 0.000000 -61.831600
-6.507366 17.132971 -0.576713 -140.441140 86.540569 -123.795764 -10.260558 0.864321 1.325337 -18.043180 -9.273998 -16.437245 -1.937837 0.174282 22.386610 1.842443 7.856323 -14.593023 -1.133800 0.000000 -9.735800 9.352604 0.223573 -1.948647 3.932268 -3.901741 -36.485716 -0.304004 -3.645911 52.799786 -1.832041 -9.270824 4.299980 -2.123100 -0.000000 -61.105900
-6.316308 17.179060 -0.602076 -149.313841 85.499688 -132.501219 -10.280731 0.952563 1.393608 -17.693271 -9.728165 -15.087157 -1.923392 0.139564 21.131629 1.703824 7.412073 -13.552506 -0.918600 0.000000 -11.324300 9.194430 0.345851 -1.821074 4.267625 -3.437495 -36.742809 -0.089992 -3.433560 49.733876 -1.936089 -9.890009 3.518102 -2.231000 0.000000 -60.225499
-6.124068 17.222025 -0.627626 -155.062031 84.348619 -138.073415 -10.299943 1.022906 1.452025 -17.335345 -10.170170 -13.766936 -1.901755 0.106896 19.925891 1.559137 6.929920 -12.430302 -0.705700 0.000000 -13.037300 9.035178 0.427862 -1.669579 4.557005 -2.995316 -36.906431 0.151110 -3.209825 46.367731 -2.035973 -10.407183 2.824285 -2.323600 0.000000 -59.336400
-5.930514 17.261290 -0.653343 -159.091044 83.153551 -141.917868 -10.324729 1.082487 1.506110 -16.982726 -10.610297 -12.495989 -1.876338 0.081388 18.796251 1.410860 6.414532 -11.245745 -0.501900 0.000000 -14.762000 8.871177 0.479388 -1.498245 4.797069 -2.601630 -36.983129 0.415233 -2.962649 42.716568 -2.122858 -10.789771 2.225545 -2.399500 0.000001 -58.571500
-5.735483 17.296388 -0.679069 -162.143644 81.944327 -144.777173 -10.352829 1.136830 1.559225 -16.646606 -11.058213 -11.289234 -1.849449 0.065873 17.771050 1.262919 5.875679 -10.028465 -0.315000 -0.000000 -16.392100 8.707073 0.509379 -1.310379 4.991808 -2.285251 -36.979821 0.700916 -2.682735 38.802335 -2.188315 -11.012723 1.706990 -2.453699 0.000000 -58.067100
-5.538893 17.326886 -0.704535 -164.629041 80.732186 -147.061261 -10.379870 1.189091 1.613321 -16.337779 -11.521735 -10.156854 -1.822813 0.061346 16.875934 1.119853 5.327444 -8.814633 -0.151700 0.000000 -17.846900 8.549271 0.526204 -1.108054 5.146443 -2.069915 -36.902793 1.007120 -2.361527 34.652424 -2.225286 -11.059785 1.238992 -2.478101 -0.000000 -57.988200
